<mxfile host="app.diagrams.net" modified="2022-02-23T22:14:22.178Z" agent="5.0 (Windows NT 10.0; Win64; x64) AppleWebKit/537.36 (KHTML, like Gecko) Chrome/98.0.4758.102 Safari/537.36" etag="GOBBRcuWZvruumcwhTVo" version="16.6.3" type="github">
  <diagram id="5l98RDpAVTLLgGe1b0Kj" name="Page-1">
    <mxGraphModel dx="1578" dy="902" grid="1" gridSize="10" guides="1" tooltips="1" connect="1" arrows="1" fold="1" page="1" pageScale="1" pageWidth="1169" pageHeight="827" math="0" shadow="0">
      <root>
        <mxCell id="0" />
        <mxCell id="1" parent="0" />
        <mxCell id="jwJmlWnay-whzDj9igeN-41" style="edgeStyle=orthogonalEdgeStyle;rounded=0;orthogonalLoop=1;jettySize=auto;html=1;exitX=1;exitY=0.5;exitDx=0;exitDy=0;entryX=0.5;entryY=0;entryDx=0;entryDy=0;" edge="1" parent="1" source="jwJmlWnay-whzDj9igeN-2" target="jwJmlWnay-whzDj9igeN-40">
          <mxGeometry relative="1" as="geometry" />
        </mxCell>
        <mxCell id="jwJmlWnay-whzDj9igeN-2" value="" style="ellipse;html=1;shape=startState;fillColor=#000000;strokeColor=#000000;" vertex="1" parent="1">
          <mxGeometry x="170" y="190" width="30" height="30" as="geometry" />
        </mxCell>
        <mxCell id="jwJmlWnay-whzDj9igeN-43" style="edgeStyle=orthogonalEdgeStyle;rounded=0;orthogonalLoop=1;jettySize=auto;html=1;exitX=1;exitY=0.5;exitDx=0;exitDy=0;entryX=0;entryY=0.5;entryDx=0;entryDy=0;" edge="1" parent="1" source="jwJmlWnay-whzDj9igeN-40" target="jwJmlWnay-whzDj9igeN-42">
          <mxGeometry relative="1" as="geometry" />
        </mxCell>
        <mxCell id="jwJmlWnay-whzDj9igeN-44" value="Timer de sinal&lt;br&gt;vermelho encerrado" style="edgeLabel;html=1;align=center;verticalAlign=middle;resizable=0;points=[];" vertex="1" connectable="0" parent="jwJmlWnay-whzDj9igeN-43">
          <mxGeometry x="-0.3037" relative="1" as="geometry">
            <mxPoint x="13" as="offset" />
          </mxGeometry>
        </mxCell>
        <mxCell id="jwJmlWnay-whzDj9igeN-40" value="&lt;p style=&quot;margin: 0px ; margin-top: 4px ; text-align: center&quot;&gt;&lt;b&gt;Semáforo em luz&lt;/b&gt;&lt;/p&gt;&lt;p style=&quot;margin: 0px ; margin-top: 4px ; text-align: center&quot;&gt;&lt;b&gt;vermelha&lt;/b&gt;&lt;/p&gt;&lt;hr size=&quot;1&quot;&gt;&lt;div style=&quot;height: 2px&quot;&gt;&lt;/div&gt;&lt;hr size=&quot;1&quot;&gt;&lt;div style=&quot;height: 2px&quot;&gt;&lt;/div&gt;" style="verticalAlign=top;align=left;overflow=fill;fontSize=12;fontFamily=Helvetica;html=1;strokeColor=#000000;" vertex="1" parent="1">
          <mxGeometry x="170" y="260" width="140" height="60" as="geometry" />
        </mxCell>
        <mxCell id="jwJmlWnay-whzDj9igeN-50" style="edgeStyle=orthogonalEdgeStyle;rounded=0;orthogonalLoop=1;jettySize=auto;html=1;exitX=0.5;exitY=1;exitDx=0;exitDy=0;" edge="1" parent="1" source="jwJmlWnay-whzDj9igeN-42" target="jwJmlWnay-whzDj9igeN-49">
          <mxGeometry relative="1" as="geometry" />
        </mxCell>
        <mxCell id="jwJmlWnay-whzDj9igeN-51" value="Timer de sinal&lt;br&gt;verde encerrado" style="edgeLabel;html=1;align=center;verticalAlign=middle;resizable=0;points=[];" vertex="1" connectable="0" parent="jwJmlWnay-whzDj9igeN-50">
          <mxGeometry x="-0.25" relative="1" as="geometry">
            <mxPoint as="offset" />
          </mxGeometry>
        </mxCell>
        <mxCell id="jwJmlWnay-whzDj9igeN-42" value="&lt;p style=&quot;margin: 0px ; margin-top: 4px ; text-align: center&quot;&gt;&lt;b&gt;Semáforo em luz&lt;/b&gt;&lt;/p&gt;&lt;p style=&quot;margin: 0px ; margin-top: 4px ; text-align: center&quot;&gt;&lt;b&gt;verde&lt;/b&gt;&lt;/p&gt;&lt;hr size=&quot;1&quot;&gt;&lt;div style=&quot;height: 2px&quot;&gt;&lt;/div&gt;&lt;hr size=&quot;1&quot;&gt;&lt;div style=&quot;height: 2px&quot;&gt;&lt;/div&gt;" style="verticalAlign=top;align=left;overflow=fill;fontSize=12;fontFamily=Helvetica;html=1;strokeColor=#000000;" vertex="1" parent="1">
          <mxGeometry x="445" y="260" width="140" height="60" as="geometry" />
        </mxCell>
        <mxCell id="jwJmlWnay-whzDj9igeN-52" style="edgeStyle=orthogonalEdgeStyle;rounded=0;orthogonalLoop=1;jettySize=auto;html=1;exitX=0;exitY=0.5;exitDx=0;exitDy=0;entryX=0.5;entryY=1;entryDx=0;entryDy=0;" edge="1" parent="1" source="jwJmlWnay-whzDj9igeN-49" target="jwJmlWnay-whzDj9igeN-40">
          <mxGeometry relative="1" as="geometry" />
        </mxCell>
        <mxCell id="jwJmlWnay-whzDj9igeN-53" value="Timer de sinal&lt;br&gt;amarelo encerrado" style="edgeLabel;html=1;align=center;verticalAlign=middle;resizable=0;points=[];" vertex="1" connectable="0" parent="jwJmlWnay-whzDj9igeN-52">
          <mxGeometry x="-0.4447" y="1" relative="1" as="geometry">
            <mxPoint x="23" y="-1" as="offset" />
          </mxGeometry>
        </mxCell>
        <mxCell id="jwJmlWnay-whzDj9igeN-49" value="&lt;p style=&quot;margin: 0px ; margin-top: 4px ; text-align: center&quot;&gt;&lt;b&gt;Semáforo em luz&lt;/b&gt;&lt;/p&gt;&lt;p style=&quot;margin: 0px ; margin-top: 4px ; text-align: center&quot;&gt;&lt;b&gt;amarela&lt;/b&gt;&lt;/p&gt;&lt;hr size=&quot;1&quot;&gt;&lt;div style=&quot;height: 2px&quot;&gt;&lt;/div&gt;&lt;hr size=&quot;1&quot;&gt;&lt;div style=&quot;height: 2px&quot;&gt;&lt;/div&gt;" style="verticalAlign=top;align=left;overflow=fill;fontSize=12;fontFamily=Helvetica;html=1;strokeColor=#000000;" vertex="1" parent="1">
          <mxGeometry x="445" y="400" width="140" height="60" as="geometry" />
        </mxCell>
      </root>
    </mxGraphModel>
  </diagram>
</mxfile>
